<svg width="91" height="91" viewBox="0 0 91 91" fill="none" xmlns="http://www.w3.org/2000/svg">
<path d="M28.4193 45.4887C28.4167 44.8889 28.4484 44.2943 28.5065 43.7103C28.5673 43.1264 28.6545 42.5529 28.7707 41.9875C28.887 41.422 29.0297 40.8644 29.1988 40.3227C29.3679 39.7784 29.5635 39.2446 29.7828 38.7267C30.0021 38.2062 30.2452 37.7015 30.5121 37.2073C30.7816 36.7158 31.0696 36.2376 31.3841 35.7751C31.6959 35.3153 32.0288 34.8688 32.3829 34.4407C32.737 34.01 33.1096 33.6004 33.5033 33.2067C33.897 32.813 34.3066 32.4404 34.7373 32.0863C35.1654 31.7322 35.612 31.3993 36.0718 31.0875C36.5342 30.773 37.0125 30.485 37.504 30.2155C37.9981 29.9486 38.5028 29.7055 39.0233 29.4862C39.5413 29.2668 40.075 29.0713 40.6194 28.9022C41.1611 28.7331 41.7186 28.5904 42.2841 28.4741C42.8496 28.3578 43.423 28.2706 44.007 28.2099C44.5909 28.1517 45.1855 28.1227 45.7827 28.12C46.3825 28.1227 46.977 28.1517 47.561 28.2099C48.145 28.2706 48.7184 28.3578 49.2839 28.4741C49.8494 28.5904 50.4069 28.7331 50.9486 28.9022C51.4929 29.0713 52.0267 29.2668 52.5446 29.4862C53.0652 29.7055 53.5699 29.9486 54.064 30.2155C54.5555 30.485 55.0338 30.773 55.4962 31.0875C55.956 31.3993 56.4026 31.7322 56.8306 32.0863C57.2614 32.4404 57.6709 32.813 58.0647 33.2067C58.4584 33.6004 58.831 34.01 59.185 34.4407C59.5391 34.8688 59.8721 35.3153 60.1839 35.7751C60.4983 36.2376 60.7863 36.7158 61.0559 37.2073C61.3228 37.7015 61.5659 38.2062 61.7852 38.7267C62.0045 39.2446 62.2 39.7784 62.3692 40.3227C62.5383 40.8644 62.681 41.422 62.7972 41.9875C62.9135 42.5529 63.0007 43.1264 63.0615 43.7103C63.1196 44.2943 63.1487 44.8889 63.1513 45.4887C63.1487 46.0859 63.1196 46.6804 63.0615 47.2644C63.0007 47.8484 62.9135 48.4218 62.7972 48.9873C62.681 49.5527 62.5383 50.1103 62.3692 50.652C62.2 51.1963 62.0045 51.7301 61.7852 52.248C61.5659 52.7686 61.3228 53.2733 61.0559 53.7674C60.7863 54.2589 60.4983 54.7372 60.1839 55.1996C59.8721 55.6594 59.5391 56.1059 59.185 56.534C58.831 56.9647 58.4584 57.3743 58.0647 57.768C57.6709 58.1617 57.2614 58.5343 56.8306 58.8884C56.4026 59.2425 55.956 59.5754 55.4962 59.8873C55.0338 60.2017 54.5555 60.4897 54.064 60.7593C53.5699 61.0261 53.0652 61.2692 52.5446 61.4886C52.0267 61.7079 51.4929 61.9034 50.9486 62.0725C50.4069 62.2416 49.8494 62.3843 49.2839 62.5006C48.7184 62.6169 48.145 62.7041 47.561 62.7649C46.977 62.823 46.3825 62.8547 45.7853 62.8547C45.1855 62.8547 44.5909 62.823 44.007 62.7649C43.423 62.7041 42.8496 62.6169 42.2841 62.5006C41.7186 62.3843 41.1611 62.2416 40.6194 62.0725C40.075 61.9034 39.5413 61.7079 39.0233 61.4886C38.5028 61.2692 37.9981 61.0261 37.504 60.7593C37.0125 60.4897 36.5342 60.2017 36.0718 59.8873C35.612 59.5754 35.1654 59.2425 34.7373 58.8884C34.3066 58.5343 33.897 58.1617 33.5033 57.768C33.1096 57.3743 32.737 56.9647 32.3829 56.534C32.0288 56.1059 31.6959 55.6594 31.3841 55.1996C31.0696 54.7372 30.7816 54.2589 30.5121 53.7674C30.2452 53.2733 30.0021 52.7686 29.7828 52.248C29.5635 51.7301 29.3679 51.1963 29.1988 50.652C29.0297 50.1103 28.887 49.5527 28.7707 48.9873C28.6545 48.4218 28.5673 47.8484 28.5065 47.2644C28.4484 46.6804 28.4193 46.0859 28.4193 45.4887Z" stroke="black" stroke-width="3.2"/>
<path d="M38.4607 28.9154C38.4607 28.9154 38.4607 28.3208 38.4607 27.4277C38.458 26.9811 38.4607 26.4606 38.458 25.903C38.4607 25.3454 38.4607 24.7535 38.458 24.159C38.4607 23.5618 38.4607 22.9699 38.4607 22.4124C38.4607 21.8548 38.4607 21.3342 38.4607 20.8877C38.458 19.9972 38.4607 19.4026 38.4607 19.4026C38.4607 19.4026 38.6905 19.4026 39.0948 19.4026C39.4991 19.4 40.0778 19.4026 40.7728 19.4026C41.1189 19.4026 41.4942 19.4 41.8905 19.4026C42.2895 19.4 42.707 19.4026 43.1404 19.4C43.5737 19.4 44.023 19.4026 44.4775 19.4026C44.9319 19.4026 45.3944 19.4026 45.8594 19.4026C46.3219 19.4026 46.7843 19.4 47.2388 19.4026C47.6933 19.4026 48.1425 19.4 48.5758 19.4026C49.0092 19.4026 49.4267 19.4026 49.8257 19.4026C50.2221 19.4 50.5973 19.4026 50.9461 19.4C51.6384 19.4 52.2171 19.4 52.6214 19.4026C53.0257 19.4026 53.2582 19.4026 53.2582 19.4026C53.2582 19.4026 53.2582 19.9972 53.2582 20.8877C53.2582 21.3342 53.2582 21.8548 53.2582 22.4124C53.2582 22.9673 53.2582 23.5645 53.2582 24.159C53.2582 24.7509 53.2582 25.3481 53.2582 25.903C53.2556 26.4606 53.2582 26.9811 53.2556 27.4277C53.2582 28.3208 53.2582 28.9154 53.2582 28.9154" stroke="black" stroke-width="3.2"/>
<path d="M67.7916 45.5626C67.7916 45.5626 68.2857 45.5626 69.0282 45.5626C69.4008 45.5626 69.8342 45.5626 70.2993 45.56C70.7643 45.5626 71.2585 45.5626 71.7552 45.5626C72.2494 45.5626 72.7461 45.5626 73.2086 45.56C73.6736 45.5626 74.107 45.5626 74.4796 45.5626C75.2221 45.5626 75.7189 45.5626 75.7189 45.5626" stroke="black" stroke-width="3.2" stroke-linecap="round"/>
<path d="M16 45.8242C16 45.8242 16.4941 45.8269 17.2367 45.8269C17.6092 45.8269 18.0426 45.8269 18.5077 45.8269C18.9727 45.8269 19.4669 45.8269 19.9636 45.8269C20.4578 45.8269 20.9519 45.8269 21.417 45.8269C21.882 45.8269 22.3154 45.8269 22.688 45.8269C23.4305 45.8269 23.9273 45.8242 23.9273 45.8242" stroke="black" stroke-width="3.2" stroke-linecap="round"/>
<path d="M62.2424 60.8886C62.2424 60.8886 62.5912 61.2374 63.117 61.7633C63.3786 62.0249 63.6852 62.3314 64.0155 62.6617C64.3431 62.9894 64.6919 63.3382 65.0434 63.6896C65.3948 64.041 65.7436 64.3898 66.0713 64.7175C66.4016 65.0478 66.7081 65.3543 66.9697 65.6159C67.4955 66.1418 67.8443 66.4932 67.8443 66.4932" stroke="black" stroke-width="3.2" stroke-linecap="round"/>
<path d="M21.0205 23.8947C21.0205 23.8947 21.3693 24.2435 21.8952 24.7694C22.1568 25.031 22.4633 25.3375 22.7936 25.6678C23.1212 25.9955 23.47 26.3443 23.8215 26.6957C24.1729 27.0471 24.5217 27.3959 24.8494 27.7236C25.1797 28.0539 25.4862 28.3604 25.7478 28.622C26.2736 29.1479 26.6251 29.4993 26.6251 29.4993" stroke="black" stroke-width="3.2" stroke-linecap="round"/>
<path d="M62.2398 29.4967C62.2398 29.4967 62.5913 29.1479 63.1171 28.622C63.3787 28.3578 63.6852 28.0513 64.0155 27.7236C64.3432 27.3959 64.692 27.0445 65.0434 26.6931C65.3949 26.3443 65.7437 25.9928 66.0714 25.6652C66.4017 25.3375 66.7082 25.031 66.9698 24.7667C67.4956 24.2409 67.8471 23.8921 67.8471 23.8921" stroke="black" stroke-width="3.2" stroke-linecap="round"/>
<path d="M21.8133 66.4932C21.8133 66.4932 22.1621 66.1418 22.6879 65.6159C22.9495 65.3543 23.256 65.0478 23.5863 64.7175C23.914 64.3898 24.2628 64.041 24.6142 63.6896C24.9657 63.3382 25.3145 62.9894 25.6422 62.6617C25.9725 62.3314 26.279 62.0249 26.5406 61.7633C27.0664 61.2374 27.4179 60.8886 27.4179 60.8886" stroke="black" stroke-width="3.2" stroke-linecap="round"/>
<path d="M45.8594 74.3651C45.8594 74.3651 45.8594 73.8683 45.8594 73.1258C45.8594 72.7532 45.8594 72.3198 45.8594 71.8548C45.8594 71.3923 45.8567 70.8956 45.8594 70.4014C45.8594 69.9047 45.8594 69.4105 45.8594 68.9455C45.8594 68.4804 45.8594 68.047 45.8594 67.6744C45.8567 66.9319 45.8594 66.4378 45.8594 66.4378" stroke="black" stroke-width="3.2" stroke-linecap="round"/>
<path d="M2.00038 45.6064C1.99375 44.1005 2.07336 42.6078 2.21931 41.1416C2.3719 39.6755 2.59083 38.2359 2.88273 36.8162C3.17463 35.3964 3.53288 33.9966 3.95746 32.6366C4.38205 31.27 4.87298 29.9299 5.42362 28.6296C5.97426 27.3227 6.5846 26.0555 7.25465 24.8149C7.93134 23.581 8.65446 22.3802 9.44393 21.2192C10.2268 20.0649 11.0627 18.9437 11.9516 17.869C12.8406 16.7876 13.776 15.7593 14.7645 14.7708C15.753 13.7823 16.7813 12.8469 17.8627 11.9579C18.9374 11.0689 20.0586 10.233 21.213 9.45018C22.3739 8.66072 23.5747 7.93759 24.8087 7.2609C26.0493 6.59085 27.3164 5.98051 28.6233 5.42987C29.9236 4.87924 31.2637 4.3883 32.6304 3.96372C33.9904 3.53913 35.3902 3.18089 36.8099 2.88898C38.2296 2.59708 39.6692 2.37815 41.1354 2.22556C42.6015 2.07961 44.0942 2.00663 45.5936 2C47.0995 2.00663 48.5922 2.07961 50.0584 2.22556C51.5245 2.37815 52.9641 2.59708 54.3838 2.88898C55.8036 3.18089 57.2034 3.53913 58.5634 3.96372C59.93 4.3883 61.2701 4.87924 62.5704 5.42987C63.8773 5.98051 65.1445 6.59085 66.3851 7.2609C67.619 7.93759 68.8198 8.66072 69.9808 9.45018C71.1351 10.233 72.2563 11.0689 73.3311 11.9579C74.4124 12.8469 75.4407 13.7823 76.4292 14.7708C77.4177 15.7593 78.3531 16.7876 79.2421 17.869C80.1311 18.9437 80.967 20.0649 81.7498 21.2192C82.5393 22.3802 83.2624 23.581 83.9391 24.8149C84.6091 26.0555 85.2195 27.3227 85.7701 28.6296C86.3208 29.9299 86.8117 31.27 87.2363 32.6366C87.6609 33.9966 88.0191 35.3964 88.311 36.8162C88.6029 38.2359 88.8219 39.6755 88.9744 41.1416C89.1204 42.6078 89.1934 44.1005 89.2 45.6064C89.1934 47.1058 89.1204 48.5985 88.9744 50.0646C88.8219 51.5308 88.6029 52.9704 88.311 54.3901C88.0191 55.8098 87.6609 57.2096 87.2363 58.5696C86.8117 59.9363 86.3208 61.2764 85.7701 62.5767C85.2195 63.8836 84.6091 65.1507 83.9391 66.3913C83.2624 67.6253 82.5393 68.8261 81.7498 69.987C80.967 71.1414 80.1311 72.2626 79.2421 73.3373C78.3531 74.4187 77.4177 75.447 76.4292 76.4355C75.4407 77.424 74.4124 78.3594 73.3311 79.2484C72.2563 80.1373 71.1351 80.9732 69.9808 81.7561C68.8198 82.5455 67.619 83.2687 66.3851 83.9454C65.1445 84.6154 63.8773 85.2258 62.5704 85.7764C61.2701 86.327 59.93 86.8179 58.5634 87.2425C57.2034 87.6671 55.8036 88.0254 54.3838 88.3173C52.9641 88.6092 51.5245 88.8281 50.0584 88.9807C48.5922 89.1267 47.0995 89.2063 45.6002 89.2063C44.0942 89.2063 42.6015 89.1267 41.1354 88.9807C39.6692 88.8281 38.2296 88.6092 36.8099 88.3173C35.3902 88.0254 33.9904 87.6671 32.6304 87.2425C31.2637 86.8179 29.9236 86.327 28.6233 85.7764C27.3164 85.2258 26.0493 84.6154 24.8087 83.9454C23.5747 83.2687 22.3739 82.5455 21.213 81.7561C20.0586 80.9732 18.9374 80.1373 17.8627 79.2484C16.7813 78.3594 15.753 77.424 14.7645 76.4355C13.776 75.447 12.8406 74.4187 11.9516 73.3373C11.0627 72.2626 10.2268 71.1414 9.44393 69.987C8.65446 68.8261 7.93134 67.6253 7.25465 66.3913C6.5846 65.1507 5.97426 63.8836 5.42362 62.5767C4.87298 61.2764 4.38205 59.9363 3.95746 58.5696C3.53288 57.2096 3.17463 55.8098 2.88273 54.3901C2.59083 52.9704 2.3719 51.5308 2.21931 50.0646C2.07336 48.5985 2.00038 47.1058 2.00038 45.6064Z" stroke="black" stroke-width="3.2"/>
</svg>
